<svg xmlns="http://www.w3.org/2000/svg" viewBox="0 0 400 50">
  <defs>
    <linearGradient id="cyber-gradient" x1="0%" y1="0%" x2="100%" y2="0%">
      <stop offset="0%" style="stop-color:#a855f7"/>
      <stop offset="25%" style="stop-color:#ec4899"/>
      <stop offset="50%" style="stop-color:#f97316"/>
      <stop offset="75%" style="stop-color:#eab308"/>
      <stop offset="100%" style="stop-color:#a855f7"/>
    </linearGradient>
  </defs>
  <!-- O -->
  <path d="M0 8 L8 0 L32 0 L40 8 L40 42 L32 50 L8 50 L0 42 Z M10 14 L10 36 L14 40 L26 40 L30 36 L30 14 L26 10 L14 10 Z" fill="url(#cyber-gradient)"/>
  <!-- C -->
  <path d="M48 8 L56 0 L88 0 L88 10 L62 10 L58 14 L58 36 L62 40 L88 40 L88 50 L56 50 L48 42 Z" fill="url(#cyber-gradient)"/>
  <!-- T -->
  <path d="M96 0 L144 0 L144 10 L126 10 L126 50 L114 50 L114 10 L96 10 Z" fill="url(#cyber-gradient)"/>
  <!-- O -->
  <path d="M152 8 L160 0 L184 0 L192 8 L192 42 L184 50 L160 50 L152 42 Z M162 14 L162 36 L166 40 L178 40 L182 36 L182 14 L178 10 L166 10 Z" fill="url(#cyber-gradient)"/>
  <!-- P -->
  <path d="M200 0 L240 0 L248 8 L248 22 L240 30 L212 30 L212 50 L200 50 Z M212 10 L212 20 L232 20 L236 16 L236 14 L232 10 Z" fill="url(#cyber-gradient)"/>
  <!-- U -->
  <path d="M256 0 L268 0 L268 36 L272 40 L284 40 L288 36 L288 0 L300 0 L300 42 L292 50 L264 50 L256 42 Z" fill="url(#cyber-gradient)"/>
  <!-- N -->
  <path d="M308 0 L320 0 L320 28 L340 0 L356 0 L356 50 L344 50 L344 20 L324 50 L308 50 Z" fill="url(#cyber-gradient)"/>
  <!-- K -->
  <path d="M364 0 L376 0 L376 18 L392 0 L408 0 L386 24 L410 50 L394 50 L376 30 L376 50 L364 50 Z" fill="url(#cyber-gradient)"/>
</svg>
